<svg xmlns="http://www.w3.org/2000/svg" width="512" height="512" viewBox="0 0 69.514 69.514"><path d="M69.514 63.309l-9.467-9.467a32.87 32.87 0 0 0 6.09-19.084c0-18.234-14.835-33.068-33.069-33.068S0 16.523 0 34.757C0 52.99 14.834 67.824 33.067 67.824c9.686 0 18.412-4.186 24.464-10.842l9.154 9.154 2.829-2.827zm-36.446.514C17.04 63.823 4 50.784 4 34.757 4 18.729 17.04 5.689 33.068 5.689s29.069 13.04 29.069 29.068c0 16.027-13.041 29.066-29.069 29.066zm2.002-31.067h13.049v4H35.07v13.051h-4V36.756H18.021v-4H31.07V19.709h4v13.047z" fill="#FFF"/></svg>