<svg xmlns="http://www.w3.org/2000/svg" viewBox="0 0 22.8 22.8" width="512" height="512"><title>Apple</title><path d="M15.8 0h.2c.1 1.6-.5 2.8-1.2 3.7-.7.9-1.7 1.7-3.4 1.6-.1-1.6.5-2.7 1.3-3.6.6-.8 1.9-1.5 3.1-1.7zm4.9 16.7c-.5 1.4-1.1 2.6-1.9 3.7-.7 1-1.6 2.3-3.2 2.3-1.4 0-2.3-.9-3.7-.9-1.5 0-2.3.7-3.7.9h-.5c-1-.1-1.8-.9-2.4-1.6C3.6 19 2.2 16.3 2 12.8v-1c.1-2.5 1.3-4.5 2.9-5.5.8-.5 2-1 3.3-.8.6.1 1.1.3 1.6.5s1.1.5 1.6.5c.4 0 .8-.2 1.1-.3 1.1-.4 2.2-.9 3.7-.6 1.7.3 3 1 3.7 2.2-1.5.9-2.6 2.3-2.4 4.7.3 2.2 1.6 3.5 3.2 4.2z"/></svg>