<svg xmlns="http://www.w3.org/2000/svg" viewBox="0 0 100 100"><title>Behance</title><path d="M42.31 45.07A16.76 16.76 0 0 0 45 35.71a17 17 0 0 0-17.08-16.55H2.18A2.22 2.22 0 0 0 0 21.36V78a2.19 2.19 0 0 0 2.18 2.18h28.77a19.3 19.3 0 0 0 11.36-35.11zm-31-14.59h16.85a5.54 5.54 0 0 1 0 11.08H11.3zm19.88 38.39H11.3v-16h19.91a8 8 0 1 1 0 16zM100 56.91C100 43.74 89.6 33 76.82 33S53.65 43.74 53.65 56.91s10.4 23.93 23.16 23.93a22.93 22.93 0 0 0 19.26-10.62 23.29 23.29 0 0 0 1.46-2.6 1 1 0 0 0-.89-1.4H85.26a1 1 0 0 0-.68.28 10.76 10.76 0 0 1-7.79 3.08 12.08 12.08 0 0 1-11.58-9.88h32.52a2.28 2.28 0 0 0 2.27-2.28v-.5zm-23.18-12.6A11.71 11.71 0 0 1 86.74 50H66.89a11.74 11.74 0 0 1 9.93-5.69zm9.64-14.11H65.91a1.75 1.75 0 0 1-1.74-1.74V23.3a1.75 1.75 0 0 1 1.74-1.74h20.55a1.75 1.75 0 0 1 1.74 1.74v5.15a1.75 1.75 0 0 1-1.74 1.75z"/></svg>