<svg xmlns="http://www.w3.org/2000/svg" viewBox="0 0 365 365"><style>.a{fill:#4d4d4d}</style><title>Brackets</title><path d="M292 0H73A73.2 73.2 0 0 0 0 73v219a73.2 73.2 0 0 0 73 73h219a73.2 73.2 0 0 0 73-73V73a73.2 73.2 0 0 0-73-73zM40.2 73A32.9 32.9 0 0 1 73 40.2h219A32.9 32.9 0 0 1 324.9 73v182.5a32.9 32.9 0 0 1-32.9 32.9H73a32.9 32.9 0 0 1-32.8-32.9z" class="a"/><path class="a" d="M193.5 116.8h51.1v91.3h-51.1v43.8h91.2V76.7h-91.2v40.1zM80.3 251.9h91.3v-43.8h-51.1v-91.3h51.1V76.7H80.3v175.2z"/></svg>