<svg xmlns="http://www.w3.org/2000/svg" viewBox="0 0 100 100"><title>CodePen</title><path d="M95 29.09L53.46 1.42a7.55 7.55 0 0 0-8.81 0L5 29.09a7.79 7.79 0 0 0-3.46 6.6v29.56A8.2 8.2 0 0 0 5 71.86l40.28 26.72a7.55 7.55 0 0 0 8.81 0L95 71.54a7.79 7.79 0 0 0 3.46-6.6V35.69a8.2 8.2 0 0 0-3.46-6.6zm-40.25-16L84 33.49 68.87 43.55 54.72 33.18zm-10.38 0v19.77l-14.5 10.06-14.46-9.74zm-33 30.19l9.43 6.29-9.43 6.6zM45 85.69h-.31L15.41 65.88 30.19 55.5 45 65.25zm4.72-28.93L39 49.53l9.43-6.6 11 7.23zM55 85.69V65.57l14.15-9.43 15.13 10.05zm33.36-29.24L78.3 49.84l10.06-6.6z"/></svg>