<svg xmlns="http://www.w3.org/2000/svg" viewBox="0 0 470.7 470.7" width="512" height="512"><title>CSS</title><path d="M427 0H43.7c-9.2 0-16.1 7.8-15.3 16.9l35.1 392.4c.8 9.2 8.7 18.8 17.6 21.3l138 38.3c8.9 2.5 23.4 2.5 32.3 0l138.2-38.3c8.9-2.5 16.8-12 17.6-21.2l35-392.5c.9-9.1-6-16.9-15.2-16.9zm-66.5 141.6c0 .1-.1.1-.1.1-.1 0-.1 0-.1-.1L252.1 186c-1.5.6-2.4 2.3-2.1 3.9.3 1.6 1.8 2.8 3.4 2.8h84.1c4.5 0 8.7 1.9 11.7 5.2 3 3.3 4.4 7.8 4 12.2l-13.1 123.3c-.6 6-4.7 11.2-10.4 13.2L240.4 378c-3.4 1.2-7 1.2-10.4 0l-88.9-30.8c-5.8-2-9.9-7.2-10.5-13.2l-6-55.8c-.3-2.9.6-5.9 2.6-8 2-2.2 4.8-3.4 7.7-3.4h24.7c5.3 0 9.8 4 10.3 9.3l3.7 34.3 61.5 21.4 61.8-21.6 7.6-71.2H129.8c-5.3 0-9.7-4-10.3-9.2l-3.3-30.2c-.5-4.6 2.1-9 6.4-10.7l111.8-46.1c1.3-.5 2-1.9 1.7-3.2-.3-1.3-1.4-2.3-2.8-2.3H115.5c-3.5 0-6.5-2.7-6.9-6.2l-3.4-32.4c-.2-2 .4-3.9 1.7-5.4 1.3-1.5 3.2-2.3 5.1-2.3h246.4c2 0 3.9.8 5.2 2.3 1.3 1.5 1.9 3.4 1.7 5.4l-4.8 42.9z"/></svg>