<svg xmlns="http://www.w3.org/2000/svg" viewBox="0 0 512 512" width="512" height="512"><path d="M38.2 0c-4.7 0-8.2 3.8-7.8 8.5l39.7 445c.4 4.7 4.5 9.6 9 10.8L247.4 511c4.5 1.3 12 1.3 16.5 0l168.9-46.8c4.5-1.3 8.6-6.1 9-10.8L481.6 8.5c.4-4.7-3.1-8.5-7.8-8.5H38.2zm358.9 102.1c-.4 4.2-1 11.4-1.4 16.1l-1 11.7c-.4 4.7-1 11.4-1.3 14.9-.3 3.5-.6 6.4-.7 6.4H184.4c-4.7 0-8.2 3.8-7.8 8.5l3.7 41c.4 4.7 4.6 8.5 9.3 8.5h190.3c4.2 0 7.3 3.4 6.9 7.6-.4 4.2-1 11.4-1.5 16.1L373.6 365c-.4 4.7-1 10.7-1.2 13.3-.2 2.6-4.1 5.8-8.7 7.1L264.2 413c-4.5 1.3-8.3 2.3-8.4 2.3-.1 0-3.8-1-8.4-2.3l-99.6-27.6c-4.5-1.3-8.6-6.1-9-10.8l-6.4-71.9c-.4-4.7 3.1-8.5 7.8-8.5H180c4.7 0 8.9 3.8 9.3 8.5l2.5 28.2c.4 4.7 4.5 9.5 9 10.8l46.6 12.6c4.5 1.2 8.3 2.2 8.3 2.2s3.8-1 8.3-2.2l46.7-12.6c4.5-1.2 8.6-6.1 9-10.8l5.1-56.4c.4-4.7-3.1-8.5-7.8-8.5H137.8c-4.7 0-8.9-3.8-9.3-8.5l-12.4-139.1c-.4-4.7-1.1-11.9-1.4-16.1-.4-4.2 3.2-7.6 7.9-7.6h266.7c4.6-.2 8.1 3.2 7.8 7.4z" fill="#DD512A"/></svg>