<svg xmlns="http://www.w3.org/2000/svg" viewBox="0 0 485 485" width="512" height="512"><title>InDesign</title><path class="a" d="M117.5 130.7h52.6v232h-52.6z"/><path d="M265.3 366.6c21.6 0 42-9.7 52.6-28.6h.8l2.3 24.7h46.5c-.6-11.3-1.4-31.3-1.4-50.3v-194h-52.3v91.2h-.6c-7.5-11.7-23.7-19-44.5-19-40.3 0-75.8 32.7-75.3 89.5 0 52.4 31.9 86.5 71.9 86.5zm17.1-136c16.2 0 27.5 11.7 30.5 25.8.5 2.8.8 6.6.8 9.4v21.9c0 4.5-.3 8.3-1.4 12.1-3.1 14.8-15.1 25.1-30.3 25.1-21.8 0-35.8-17.9-35.8-46.4.1-26.6 12.4-47.9 36.2-47.9z"/><path d="M0 0v485h485V0H0zm455 455H30V30h425v425z"/></svg>