<svg xmlns="http://www.w3.org/2000/svg" viewBox="0 0 100 100"><title>LinkedIn</title><path d="M23.29 32.18H3.19a1.6 1.6 0 0 0-1.61 1.61v64.48a1.6 1.6 0 0 0 1.61 1.61h20.1a1.6 1.6 0 0 0 1.61-1.61V33.79a1.64 1.64 0 0 0-1.61-1.61zM13.26.11a13.24 13.24 0 1 0 13.22 13.26A13.26 13.26 0 0 0 13.26.11zM74.35 30.6A23.49 23.49 0 0 0 56.71 38v-4.21a1.6 1.6 0 0 0-1.61-1.61H35.87a1.6 1.6 0 0 0-1.61 1.61v64.48a1.6 1.6 0 0 0 1.61 1.61h20a1.6 1.6 0 0 0 1.61-1.61v-31.9c0-10.74 2.94-14.94 10.42-14.94 8.16 0 8.81 6.71 8.81 15.48v31.36a1.6 1.6 0 0 0 1.61 1.61h20a1.6 1.6 0 0 0 1.68-1.61V62.92c0-16-3.06-32.32-25.65-32.32z"/></svg>