<svg xmlns="http://www.w3.org/2000/svg" viewBox="0 0 485 485" width="512" height="512"><style>.a{fill:#fff}</style><title>PhotoShop</title><path d="M321.3 328.4c-16.3 0-37.1-7.3-47.2-13.3l-9.7 39.2c13.3 7.3 33.9 12.3 56.9 12.3 50.4 0 76.4-24.1 76.4-57-.4-25.9-14.4-42.9-47.9-54.3-21.5-7.6-28.3-12-28.3-20.2 0-9 7.5-14.4 20.8-14.4 15.1 0 30.2 5.8 38.2 10.1l9.7-37.8c-10.8-5.4-29.2-10.1-49.8-10.1-43.6 0-71.7 24.9-71.7 57.6-.4 20.9 13.7 40.8 50.1 53 20.4 6.9 25.9 11.2 25.9 20.2 0 8.9-6.9 14.7-23.4 14.7zm-179.6-52.2c5 .7 11.6 1 18.7 1 32.4 0 60.2-7.9 78.8-25.5 14.5-13.7 22.4-33.9 22.4-57.6 0-23.8-10.3-44-26-56.2-16.1-13.1-40.3-19.5-74.2-19.5-33.5 0-57.3 2.2-74.1 5V363h54.3v-86.8zm.1-114.2c3.8-1.1 11.5-2.2 22.5-2.2 27.5 0 42.9 13.3 43 35.6 0 24.9-18.1 39.7-47.3 39.7-7.9 0-13.6-.3-18.3-1.4V162z" class="a"/><path d="M0 0v485h485V0H0zm455 455H30V30h425v425z" class="a"/></svg>