<svg xmlns="http://www.w3.org/2000/svg" viewBox="0 0 386.4 184.5" width="512" height="512"><title>PHP</title><path d="M77.4 61.8q18.1 0 24.1 6.7t2.9 22.9q-3.3 16.9-12.7 24.2t-28.6 7.2H43.8l11.9-61zM0 184.5h31.8l7.5-38.7h27.2q18 0 29.6-3.8a56.1 56.1 0 0 0 21.1-12.7 63.3 63.3 0 0 0 19.9-35.7q5-25.9-7.6-40.4T89.4 38.8H28.3zM160.5 0H192l-7.5 38.8h28.1q26.5 0 36.5 9.2t6 29.9l-13.2 67.8h-32l12.5-64.5q2.1-11-1.6-15t-15.8-4h-25.1l-16.2 83.5h-31.5zm164.7 61.8q18.1 0 24.1 6.7t2.9 22.9q-3.3 16.9-12.7 24.2t-28.6 7.2h-19.3l11.9-61zm-77.4 122.7h31.8l7.5-38.7h27.2q18 0 29.6-3.8a56.1 56.1 0 0 0 21.1-12.7 63.3 63.3 0 0 0 20-35.7q5-25.9-7.6-40.4t-40.2-14.4h-61.1z"/></svg>