<svg xmlns="http://www.w3.org/2000/svg" xmlns:xlink="http://www.w3.org/1999/xlink" width="240.255" height="350.495" viewBox="0 0 225.23922 328.58942"><defs><linearGradient id="h"><stop offset="0" stop-color="#5b9cde"/><stop offset="1" stop-color="#609fdf" stop-opacity=".67"/></linearGradient><linearGradient id="g"><stop offset="0" stop-color="#418dd9"/><stop offset="1" stop-color="#609fdf" stop-opacity=".67"/></linearGradient><linearGradient id="f"><stop offset="0" stop-color="#888794"/><stop offset="1" stop-color="#888794" stop-opacity="0"/></linearGradient><linearGradient id="e"><stop offset="0" stop-color="#8b93a1"/><stop offset="1" stop-color="#8b93a1" stop-opacity="0"/></linearGradient><linearGradient id="d"><stop offset="0" stop-color="#fff"/><stop offset="1" stop-color="#8b93a1"/></linearGradient><linearGradient id="c"><stop offset="0" stop-color="#fff"/><stop offset=".27" stop-color="#dae2ec"/><stop offset="1" stop-color="#597caa"/></linearGradient><linearGradient id="a"><stop offset="0" stop-color="#355d45"/><stop offset="1" stop-color="#0f0" stop-opacity="0"/></linearGradient><linearGradient id="b"><stop offset="0" stop-color="#5aa278"/><stop offset="1" stop-color="#0f0" stop-opacity="0"/></linearGradient><linearGradient xlink:href="#a" id="m" x1="450.072" y1="328.004" x2="435.967" y2="270.147" gradientUnits="userSpaceOnUse"/><linearGradient xlink:href="#b" id="n" x1="397.185" y1="290.526" x2="423.287" y2="270.169" gradientUnits="userSpaceOnUse"/><linearGradient xlink:href="#a" id="o" gradientUnits="userSpaceOnUse" x1="393.503" y1="259.566" x2="421.324" y2="260.504"/><radialGradient xlink:href="#c" id="l" cx="409.165" cy="314.729" fx="409.165" fy="314.729" r="52.08" gradientTransform="matrix(-1.01297 .41076 -.54505 -1.34413 1014.713 518.36)" gradientUnits="userSpaceOnUse"/><radialGradient xlink:href="#d" id="i" cx="427.274" cy="698.051" fx="427.274" fy="698.051" r="73.094" gradientTransform="matrix(-1.08188 .12402 -.0909 -.79304 1058.022 999.302)" gradientUnits="userSpaceOnUse"/><linearGradient xlink:href="#e" id="j" x1="358.119" y1="607.149" x2="332.517" y2="665.738" gradientUnits="userSpaceOnUse" gradientTransform="translate(165.536 -197.5)"/><radialGradient xlink:href="#d" id="k" cx="190.041" cy="668.512" fx="190.041" fy="668.512" r="81.259" gradientTransform="matrix(-.63857 -.02433 .01652 -.43353 573.983 702.785)" gradientUnits="userSpaceOnUse"/><linearGradient xlink:href="#f" id="q" x1="477.29" y1="371.692" x2="507.623" y2="371.692" gradientUnits="userSpaceOnUse" gradientTransform="translate(-7.857 23.214)"/><linearGradient xlink:href="#f" id="r" x1="465.949" y1="362.929" x2="481.238" y2="362.929" gradientUnits="userSpaceOnUse" gradientTransform="translate(-7.857 23.214)"/><linearGradient xlink:href="#f" id="p" x1="304.83" y1="596.861" x2="321.689" y2="568.577" gradientUnits="userSpaceOnUse" gradientTransform="translate(180.639 -36.901)"/><radialGradient xlink:href="#g" id="s" cx="594.137" cy="-163.538" fx="594.137" fy="-163.538" r="2.425" gradientTransform="matrix(1 0 0 1.50786 0 83.055)" gradientUnits="userSpaceOnUse"/><filter id="t" x="-.137" width="1.274" y="-.166" height="1.332" color-interpolation-filters="sRGB"><feGaussianBlur stdDeviation=".386"/></filter><radialGradient xlink:href="#h" id="u" cx="594.137" cy="-163.538" fx="594.137" fy="-163.538" r="2.425" gradientTransform="matrix(1 0 0 1.50786 0 83.055)" gradientUnits="userSpaceOnUse"/><filter id="v" x="-.137" width="1.274" y="-.166" height="1.332" color-interpolation-filters="sRGB"><feGaussianBlur stdDeviation=".386"/></filter></defs><g transform="translate(-370.227 -243.228)"><path d="M515.623 566.999c11.334-2.402 25.21-7.564 40.25-14.973 9.803-4.828 9.9-4.843 16.106-2.466 4.44 1.701 12.556 1.823 15.475.231 2.136-1.164 2.025-1.19-3.61-.828-9.357.6-14.643-2.169-16.317-8.548-.437-1.669-1-7.982-1.25-14.03-.905-21.91-3.993-35.795-10.349-46.537-5.85-9.889-19.99-22.77-23.14-21.084-.761.407-5.307 3.664-10.102 7.24-4.796 3.574-10.767 7.523-13.27 8.776-5.741 2.873-12.878 4.061-17.913 2.981-3.648-.782-3.755-.89-7.303-7.294-3.098-5.593-4.05-6.7-6.824-7.935-2.909-1.295-3.223-1.694-3.223-4.103 0-1.468-.334-3.293-.742-4.056-.693-1.295-1.118-1.198-6.453 1.482-6.002 3.016-13.95 4.963-17.895 4.384-3.388-.498-3.771 1.096-4.701 19.552l-.805 15.968 4.67 5.923 4.671 5.923-.466 14.888c-.416 13.246-.665 15.384-2.265 19.38-2.213 5.53-2.215 5.746-.053 5.746.96 0 2.096.351 2.525.78.535.536 1.47.423 2.976-.358 1.944-1.009 2.372-1.01 3.732-.012 1.839 1.35 2.423 1.6 5.128 2.193 2.93.641 4.427 3.374 4.6 8.397l.15 4.316 4.71-.298c2.59-.164 4.929-.517 5.196-.784.267-.267-.106-2.267-.83-4.445-2.674-8.053-.126-20.524 5.286-25.868 1.331-1.314 2.225-3.16 2.492-5.147.46-3.429 2.2-3.81 1.952-.427-.123 1.674.094 1.97 1.137 1.549.71-.286 2.655-.713 4.323-.947 1.668-.235 3.942-1.097 5.053-1.915 1.883-1.388 13.358-4.292 17.074-4.321.909-.007 2.103-.452 2.655-.989 2.292-2.231 6.69-5.218 6.69-4.544 0 .4-1.276 1.635-2.836 2.744l-2.834 2.017h3.214c2.201 0 3.214.325 3.214 1.03 0 .727-2.068 1.304-7.015 1.96-8.546 1.132-10.427 1.55-10.427 2.317 0 .325 1.16.809 2.578 1.075 3.66.687 4.76 2.238 3.658 5.158-.745 1.974-.66 2.591.573 4.159 1.946 2.474.39 6.767-2.206 6.087-1.02-.267-1.19.726-1.19 6.962 0 6.429-.237 7.722-2.037 11.133-1.12 2.123-3.265 4.939-4.766 6.257l-2.73 2.396h4.148c2.281 0 6.473-.493 9.316-1.095z" fill="url(#i)" stroke="#000"/><path d="M448.073 541.88c1.756-4.384 1.93-5.897 2.156-18.768l.246-14-2.464-3.563c-1.355-1.96-2.838-3.794-3.295-4.077-.595-.368-.764 4.504-.594 17.214.228 17.16.182 17.812-1.432 20.381-1.96 3.12-2.061 3.792-.571 3.792.606 0 1.715.842 2.465 1.872.749 1.03 1.411 1.882 1.471 1.896.06.013.968-2.123 2.018-4.746z" fill="#8b93a1" stroke="#000"/><path d="M505.183 474.943c3.552-1.067 15.743-8.974 21.813-14.148 2.107-1.796 6.458-5.274 9.67-7.73l5.839-4.466v-3.684c0-3.19-.382-4.11-2.844-6.85-4.662-5.189-22.957-21.758-28.098-25.448-5.441-3.906-7.27-4.029-14.386-.968l-3.964 1.705v5.078c0 9.793-4.273 18.315-13.752 27.43l-5.216 5.015 1.142 2.734c.628 1.503 1.142 3.603 1.142 4.666 0 1.473.651 2.242 2.738 3.238 2.066.985 3.561 2.732 6.092 7.12 1.844 3.197 3.769 6.154 4.276 6.571 2.16 1.774 9.16 1.656 15.548-.263z" fill="url(#j)" stroke="#000"/><path d="M399.44 336.791c.01.02.22.523-.088 1.492-.266.838-3.133 3.54-6.372 6.006-14.151 10.773-20.612 22.163-20.673 36.455-.016 3.686.52 8.556 1.252 11.375 1.793 6.908 6.79 16.14 11.084 20.479 8.48 8.57 25.107 15.463 43.75 18.134l4.015.577-.472-2.155c-.364-1.655-.197-2.152.724-2.152.659 0 1.197.463 1.197 1.027 0 1.807 3.627 5.041 5.653 5.041 1.272 0 1.931.417 1.931 1.223 0 1.248-.72 1.234-6.27-.13-2.208-.544-14.204 2.473-14.204 3.571 0 .76 4.074 5.422 7.96 9.106 3.496 3.313 11.74 7.89 16.024 8.896 4.92 1.156 10.491.918 15.613-.664 9.322-2.879 23.299-15.074 27.543-24.033 2.403-5.071 3.663-11.032 3.038-14.365-.41-2.179-.751-2.557-1.97-2.17-2.59.822-1.587-1.064 1.368-2.57 4.97-2.535 12.528-5.407 14.225-5.407 2.346 0 9.208 5.028 19.9 14.58 9.354 8.358 11.373 9.644 6.826 4.346-1.355-1.58-4.854-5.708-7.773-9.174-2.92-3.465-6.88-7.93-8.801-9.922l-3.494-3.62-4.469.435c-6.215.605-11.836 2.278-17.865 5.314-2.83 1.425-5.497 2.592-5.924 2.592-1.634 0-.668-1.288 1.877-2.502 1.46-.696 2.654-1.56 2.654-1.922 0-1.506-4.635-6.886-8.17-9.48-7.277-5.342-15.316-7.315-23.511-5.772-4.348.82-4.719 1.038-4.26 2.514.498 1.604.488 1.604-1.135.154-1.617-1.444-1.66-1.442-3.703.092-1.378 1.035-1.984 2.107-1.82 3.215.544 3.693-3.484 7.005-9.725 7.996-1.877.298-4.168 1.022-5.092 1.607-.924.586-2.874 1.065-4.332 1.065-1.686 0-3.171.56-4.082 1.537-.806.865-1.94 1.342-2.592 1.092-.798-.306-1.309.159-1.644 1.496-.662 2.636-2.123 2.5-1.559-.145.405-1.898.347-1.965-.638-.757-1.348 1.65-2.19 1.707-1.897.127.151-.816-.895-1.63-3.26-2.538-5.11-1.958-9.52-5.244-15.527-11.568-6.2-6.527-10.447-13.143-11.744-18.293-1.427-5.667-.582-13.204 2.017-17.994 4.147-7.64 14.133-15.968 20.395-17.006 5.25-.87 8.78-1.975 8.38-2.621-.211-.343-2.052-.845-4.091-1.115s-8.023-1.232-8.977-2.059c-1.111-.964-1.302-1.43-1.293-1.41zm60.88 77.465c.299-.011.595.018.885.115 4.331 2.888-.423 9.855-4.777 7.678-.334-.167-1.015.19-1.293-.088-.41-.41-1.354-.43-1.653-1.027-1.023-2.048 2.551-6.25 4.33-6.25.713 0 1.614-.395 2.508-.428z" fill="url(#k)" stroke="#000"/><path d="M487.403 571.229c-.834-.482-2.711-1.994-4.17-3.36-2.63-2.461-2.694-2.477-6.688-1.638-5.323 1.119-14.235-.658-25.163-5.017-6.506-2.596-8.007-3.489-8.205-4.883-.196-1.381-.726-1.706-2.782-1.706-3.683 0-4.938-.688-4.938-2.707 0-2.552 3.46-13.108 4.79-14.608.938-1.06 1.184-6.786 1.522-35.39.363-30.746.757-37.613 2.47-43.035.255-.805.027-1.328-.579-1.328-2.204-.002-10.386-4.538-14.782-8.197-4.766-3.966-11.229-11.568-11.259-13.243-.009-.512-.463-2.006-1.009-3.32-.805-1.94-1.659-2.558-4.52-3.279-10.932-2.752-23.983-10.064-30.09-16.857-3.99-4.436-8.827-13.958-10.573-20.81-2.163-8.489-1.363-18.861 2.085-27.008 3.028-7.154 11.706-17.346 19.146-22.485 2.06-1.422 4.571-3.74 5.48-5.216l1.231-1.999c9.918 5.97 19.465 5.092 19.465 5.092-1.025 2.469-1.358 2.3-3.852 3.434-1.877.83-5.46 1.916-7.963 2.412-5.422 1.075-10.362 4.043-15.022 9.024-11.91 12.733-10.199 26.84 5.123 42.24 7.338 7.376 12.512 10.499 18.545 11.192 4.261.49 5.188.068 5.78-2.628.593-2.697 3.851-6.744 5.43-6.744.63 0 2.11.689 3.29 1.53 2.07 1.473 2.165 1.477 2.596.12.664-2.094 3.95-4.964 4.556-3.982.278.449-.02.816-.66.816-1.45 0-3.787 3.432-3.097 4.549.775 1.254 6.197.462 7.998-1.168 1.025-.927 1.476-2.065 1.262-3.182-.242-1.267.359-2.346 2.209-3.97 2.262-1.987 2.397-2.312 1.23-2.965-1.838-1.03-.657-1.912 1.216-.909 2.293 1.227 3.807.982 2.066-.334-2.108-1.595-.928-2.238 1.359-.74 2.264 1.483 4.241 1.037 7.085-1.598 1.102-1.021 3.848-2.912 6.102-4.202 3.634-2.08 4.53-2.287 7.926-1.836 8.911 1.182 27.077 13.204 28.972 19.174.387 1.22 1.105 1.364 5.565 1.115 7.174-.402 7.664.003 23.228 19.195 10.423 12.853 13.872 18.178 14.412 22.246.272 2.048.284 4.27.028 4.938-.256.668-2.505 2.73-4.997 4.581l-4.531 3.367 4.415 3.036c14.61 10.046 23.503 24.328 27.18 43.65.643 3.382 1.496 12.292 1.895 19.8.86 16.227 1.217 18.779 2.888 20.693 3.431 3.93 11.254 5.106 18.78 2.823 4.657-1.413 5.618-1.424 5.618-.063 0 1.825-5.46 5.728-9.784 6.993-4.752 1.39-8.868 1.04-15.653-1.334l-4.583-1.603-8.309 4.165c-18.79 9.418-39.136 16.07-51.534 16.85-3.337.21-8.455.562-11.375.783-3.355.254-5.867.08-6.825-.474zm10.529-3.886c1.861-.555 4.392-2.236 6.27-4.165 11.101-11.396 4.686-34.337-9.602-34.337-5.492 0-9.93 3.488-13.026 10.238-1.38 3.008-1.74 5.124-1.74 10.237 0 9.3 2.966 15.137 9.086 17.88 2.871 1.287 5.072 1.323 9.012.147zm17.67-.163c11.334-2.402 25.21-7.564 40.25-14.973 9.802-4.828 9.9-4.843 16.106-2.466 4.439 1.701 12.556 1.822 15.475.231 2.136-1.164 2.025-1.19-3.61-.828-9.358.6-14.644-2.169-16.317-8.548-.438-1.669-1-7.982-1.25-14.03-.905-21.91-3.993-35.795-10.349-46.537-5.851-9.89-19.99-22.77-23.141-21.084-.76.407-5.306 3.664-10.102 7.24-4.796 3.574-10.767 7.523-13.27 8.776-5.74 2.873-12.877 4.06-17.913 2.981-3.647-.782-3.755-.89-7.302-7.294-3.099-5.593-4.05-6.7-6.824-7.935-2.91-1.295-3.223-1.695-3.223-4.103 0-1.468-.334-3.293-.742-4.056-.694-1.295-1.119-1.198-6.453 1.482-6.003 3.016-13.95 4.962-17.896 4.383-3.387-.497-3.77 1.097-4.7 19.552l-.805 15.969 4.67 5.923 4.67 5.923-.466 14.888c-.415 13.246-.665 15.383-2.264 19.38-2.213 5.53-2.215 5.746-.053 5.746.959 0 2.095.351 2.524.78.536.535 1.471.423 2.977-.358 1.944-1.009 2.371-1.01 3.731-.012 1.84 1.35 2.424 1.6 5.129 2.193 2.93.641 4.427 3.374 4.6 8.397l.149 4.316 4.71-.298c2.591-.164 4.93-.517 5.196-.784.267-.267-.106-2.267-.83-4.445-2.674-8.053-.126-20.525 5.287-25.868 1.33-1.314 2.225-3.16 2.491-5.147.46-3.43 2.2-3.81 1.952-.427-.122 1.674.095 1.97 1.138 1.549.71-.287 2.654-.713 4.323-.947 1.668-.235 3.942-1.097 5.053-1.916 1.882-1.387 13.358-4.291 17.074-4.32.909-.007 2.103-.452 2.654-.989 2.293-2.231 6.69-5.218 6.69-4.544 0 .4-1.276 1.635-2.835 2.744l-2.835 2.017h3.214c2.202 0 3.214.325 3.214 1.03 0 .726-2.067 1.304-7.015 1.96-8.545 1.132-10.427 1.55-10.427 2.316 0 .326 1.16.81 2.578 1.076 3.66.687 4.761 2.238 3.659 5.158-.745 1.974-.66 2.591.573 4.158 1.946 2.475.39 6.767-2.207 6.088-1.02-.267-1.19.726-1.19 6.962 0 6.429-.237 7.722-2.037 11.133-1.12 2.123-3.265 4.939-4.766 6.257l-2.73 2.396h4.148c2.282 0 6.474-.493 9.316-1.095zm-50.873-28.604c-.893-.52-3.556-.676-7.014-.415-3.066.232-5.575.29-5.575.128 0-.685 3.47-2.064 6.728-2.672 3.326-.622 3.272-.638-1.04-.31-4.21.32-4.437.258-3.034-.818 1.87-1.436 8.447-1.239 8.148.243-.107.53.66 1.352 1.706 1.828 1.045.477 1.9 1.324 1.9 1.882 0 1.203.02 1.201-1.819.134zm52.393-10.847c-1.58-1.891-2.652-3.438-2.38-3.438.965 0 5.777 5.304 5.517 6.082-.145.436-1.557-.754-3.137-2.644zm-49.057 31.874c0-4.789-1.852-7.974-4.652-8-.941-.009-1.37 1.028-1.78 4.306-.608 4.877.362 6.3 4.302 6.3 1.921 0 2.13-.256 2.13-2.606zm-8.1-2.737c.556-4.69-.397-7.55-2.516-7.55-2.947 0-4.4 8.988-1.707 10.556 2.832 1.65 3.75.997 4.223-3.006zm-7.22-2.367c.266-4.02-1.056-5.614-4.033-4.867-2.14.537-3.853 3.468-3.129 5.355.492 1.282 4.883 3.52 6.178 3.15.417-.12.86-1.757.984-3.638zm-9.22-4.805c.662-1.725-.372-4.932-1.763-5.466-1.57-.602-4.03 2.324-4.03 4.793 0 1.568.36 1.812 2.678 1.812 1.682 0 2.84-.423 3.115-1.14zm4.297-8.18c1.755-4.386 1.929-5.898 2.155-18.77l.246-13.999-2.464-3.563c-1.355-1.96-2.837-3.795-3.294-4.077-.596-.368-.764 4.503-.595 17.213.228 17.16.183 17.812-1.432 20.382-1.96 3.12-2.06 3.791-.57 3.791.605 0 1.714.843 2.464 1.872.75 1.03 1.411 1.883 1.471 1.896.06.013.968-2.122 2.019-4.745zm66.257-3.27c.513-1.336-1.281-2.871-2.238-1.915-.729.73.093 3.129 1.071 3.129.386 0 .91-.546 1.167-1.214zm-2.49-6.052c.934-2.436.48-3.35-1.663-3.35-3.055 0-4.26 1.427-2.678 3.174 1.533 1.695 3.724 1.783 4.34.176zm-6.554-5.436c.183-.55-.329-.948-1.22-.948-1.658 0-2.656.99-1.83 1.816.763.763 2.69.215 3.05-.868zm.025-52.165c3.553-1.067 15.744-8.974 21.814-14.148 2.106-1.796 6.457-5.274 9.669-7.73l5.84-4.466v-3.684c0-3.19-.383-4.11-2.844-6.85-4.663-5.189-22.957-21.758-28.098-25.448-5.442-3.906-7.271-4.029-14.386-.968l-3.965 1.705v5.078c0 9.793-4.272 18.315-13.752 27.43l-5.215 5.015 1.142 2.733c.628 1.504 1.142 3.604 1.142 4.667 0 1.473.65 2.242 2.738 3.238 2.066.985 3.56 2.732 6.091 7.12 1.845 3.197 3.77 6.154 4.277 6.571 2.16 1.774 9.16 1.656 15.547-.263zm-44.414-19.297c9.322-2.88 23.298-15.075 27.543-24.034 2.403-5.07 3.664-11.032 3.038-14.365-.408-2.179-.752-2.557-1.97-2.17-2.59.822-1.586-1.064 1.369-2.57 4.97-2.534 12.527-5.406 14.224-5.406 2.347 0 9.21 5.028 19.901 14.58 9.354 8.358 11.372 9.642 6.825 4.345-1.355-1.58-4.853-5.707-7.773-9.173s-6.88-7.93-8.801-9.922l-3.494-3.62-4.469.435c-6.215.605-11.836 2.277-17.866 5.314-2.83 1.425-5.495 2.59-5.922 2.59-1.634 0-.668-1.287 1.877-2.5 1.46-.697 2.654-1.562 2.654-1.923 0-1.506-4.636-6.885-8.17-9.48-7.278-5.342-15.317-7.315-23.513-5.771-4.348.819-4.718 1.037-4.26 2.513.499 1.603.49 1.605-1.133.155-1.617-1.445-1.66-1.444-3.703.09-1.377 1.035-1.985 2.108-1.822 3.216.545 3.693-3.483 7.006-9.724 7.997-1.877.298-4.169 1.02-5.092 1.606-.924.585-2.873 1.065-4.331 1.065-1.687 0-3.173.559-4.083 1.536-.806.866-1.938 1.343-2.59 1.093-.799-.307-1.31.159-1.646 1.496-.662 2.636-2.123 2.5-1.559-.144.406-1.898.348-1.966-.638-.759-1.347 1.652-2.19 1.708-1.897.127.152-.815-.895-1.629-3.26-2.535-5.109-1.96-9.52-5.246-15.528-11.57-6.2-6.527-10.447-13.142-11.743-18.292-1.427-5.667-.582-13.204 2.017-17.994 4.147-7.64 14.134-15.968 20.395-17.007 5.25-.87 8.781-1.975 8.382-2.62-.212-.343-2.053-.845-4.092-1.115-2.04-.27-8.023-1.232-8.977-2.06-2.224-1.928-.766-1.857-1.381.083-.266.837-3.133 3.54-6.372 6.005-14.151 10.773-20.61 22.164-20.672 36.455-.016 3.687.52 8.557 1.251 11.375 1.793 6.909 6.79 16.14 11.083 20.48 8.481 8.57 25.11 15.463 43.752 18.134l4.014.575-.473-2.152c-.363-1.656-.196-2.153.725-2.153.66 0 1.198.462 1.198 1.027 0 1.807 3.625 5.04 5.651 5.04 1.273 0 1.932.418 1.932 1.223 0 1.249-.72 1.234-6.27-.13-2.208-.544-14.205 2.473-14.205 3.572 0 .76 4.077 5.421 7.963 9.105 3.495 3.314 11.738 7.89 16.022 8.896 4.92 1.155 10.491.919 15.613-.663zm-7.113-34.322c.521-.21 3.584.99 4.105 1.2.522.21-.03.876-.948.382-2.68-1.44-3.679-1.371-3.157-1.582zm-.129.438c-1.067-1.067-.432-3.85 1.237-5.417 1.969-1.85 6.6-3.098 6.6-1.78 0 .457-.482.645-1.07.42-2.862-1.099-7.7 3.99-6.162 6.481.553.894.176 1.077-.605.296zm8.326-1.035c1.12-1.16 1.234-1.949 1.41-1.83.437.296-2.78 3.37-3.5 3.37-.318 0 .97-.38 2.09-1.54zm5.671-7.106c-.496-1.21-.778-2.574-.625-3.03.428-1.286 2.184 2.487 1.836 3.943-.23.965-.534.737-1.21-.913zm1.89-1.78a47.805 47.805 0 0 0-.958-2.465c-.34-.79.008-.697 1.138.307 1.64 1.456 2.198 3.485.958 3.485-.369 0-.88-.598-1.138-1.328zm-40.316-6.379c2.45-1.116 2.443-1.952-.023-3.076-2.29-1.044-4.026-.244-4.962 2.287-.53 1.43-.355 1.67 1.218 1.67 1.01 0 2.705-.397 3.767-.88zm65.744-1.496c2.872-1.047 4.438-2.044 4.438-2.824 0-3.327-17.861-16.033-22.538-16.033-1.621 0-6.384 2.928-6.786 4.17-.135.418 1.314 1.4 3.22 2.184 4.76 1.958 11.775 7.372 14.33 11.06 1.167 1.684 2.297 3.061 2.51 3.061.213 0 2.385-.728 4.826-1.618zm-25.805-17.34l3.126-3.034h-2.597c-1.645 0-3.973.897-6.348 2.444l-3.75 2.445 3.033.481c1.668.265 3.118.53 3.222.59.104.059 1.595-1.258 3.314-2.926zm-29.097 15.168c1.147-1.286 1.24-3.522.17-4.052-.427-.212-.341-.3.19-.194 1.524.303 1.56 3.133.056 4.274-1.165.884-1.226.88-.416-.028zm-.758-5.812c.521-.21 1.374-.21 1.896 0 .521.21.095.382-.948.382s-1.47-.172-.948-.382z"/><path d="M399.874 338.553l-1.736-1.145c-.954-.63-4.187-3.64-7.182-6.69-13.122-13.361-17.742-32.91-12.017-50.847 2.525-7.91 5.471-12.84 11.484-19.213 13.965-14.804 33.518-20 52.617-13.984 20.992 6.614 35.642 26.692 35.642 48.848 0 20.058-11.353 37.7-29.78 46.277-7.539 3.508-12.87 4.588-22.166 4.49l-17.509-2.824z" fill="url(#l)" stroke="#000" stroke-width="2"/><path d="M421.807 302.726a1.14 1.14 0 0 1 1.137-1.137 1.14 1.14 0 0 1 1.138 1.137 1.14 1.14 0 0 1-1.138 1.138 1.14 1.14 0 0 1-1.137-1.138z" fill="none" stroke="#000"/><path d="M452.971 330.943c-.675.108 4.37-1.27 5.7-5.006 1.017-2.856 4.884-6.979 5.604-10.444.26-1.25 2.412-4.614 1.557-5.464-.768-.763-3.545-.043-5.204-.11-1.73-.069-2.332-.92-2.448-1.505-.084-.209-.112-.635-.063-.948.05-.313-.695-.569-1.654-.569-.96 0-2.138-.393-2.619-.874-.962-.962-16.14-1.64-20.869-.932l-2.86.428.493 3.912c.391 3.107 1.025 4.425 3.08 6.403 1.49 1.435 2.976 2.267 3.505 1.964-.505 1.158-.715 1.38.638 1.731 1.182 1.425 4.695 6.803 4.259 5.133-.052 1.46.08 3.326-.476 5.053-.52 1.614-8.873 9.691-8.287 10.01.374.204 4.14-.974 4.96-1.196 1.085-.296 1.905-.668 3.654-1.827.668-.443 1.027-1.423 1.767-1.924.886-.601 2.6-.775 3.663-.951 1.215-.2 2.817-.19 3.508-.659 1.365-.924 1.24-2.45 2.092-2.225z" fill="url(#m)" stroke="#000" stroke-width="2"/><path d="M416.82 308.506c.227-.366-.931-1.554-2.572-2.64-2.271-1.503-3.11-2.644-3.51-4.775-.441-2.355-.253-3.02 1.185-4.184.94-.762 2.571-1.385 3.624-1.385 2.409 0 5.29-3.003 7.64-7.963 3.336-7.036 3.34-7.067 1.189-8.926-1.076-.93-2.444-2.629-3.04-3.776-.953-1.831-.938-2.368.118-4.411 1.91-3.695 1.242-5.51-2.302-6.25-1.668-.347-4.057-.693-5.308-.768-2.15-.128-2.275.021-2.275 2.736 0 2.883-1.124 4.298-3.433 4.321-2.011.02-4.39-2.18-4.909-4.54-.275-1.25-.728-2.266-1.008-2.258-.28.008-3.235.495-6.567 1.082-4.893.862-6.396 1.46-7.818 3.113l-1.76 2.046 2.72 2.49c2.548 2.334 2.687 2.698 2.216 5.783-.276 1.81-.821 3.697-1.21 4.192-.454.577-.227 2.49.628 5.309 1.553 5.117 8.443 14.38 11.214 15.075.976.245 2.151 1.272 2.611 2.283.461 1.01 1.101 1.852 1.423 1.87.321.019 2.291.508 4.376 1.087 4.538 1.26 6.217 1.381 6.768.49z" fill="url(#n)" stroke="#000" stroke-width="2"/><path d="M461.24 308.414c0-.417-.532-.759-1.182-.759-.65 0-.971.342-.714.759.258.417.79.758 1.183.758.392 0 .713-.341.713-.758z" fill="none" stroke="#000"/><path style="isolation:auto;mix-blend-mode:normal" d="M405.843 255.24c1.53-1.132 2.955-1.518 4.809-1.301 2.59.302 2.615.278 1.5-1.426-.625-.953-1.648-1.733-2.274-1.733-1.862 0-8.546 3.95-8.546 5.05 0 1.503 2.04 1.236 4.51-.59z" color="#000" overflow="visible" fill="url(#o)" stroke="#000" stroke-width="2" enable-background="accumulate"/><path d="M421.134 248.287c-.62-.62-.844-.534-.844.32 0 1.507 1.02 2.526 1.397 1.396.16-.48-.09-1.252-.553-1.716z" fill="#55a871" fill-opacity=".933" stroke="#000"/><path d="M461.16 414.505c3.695 2.938-4.311 6.112-6.785 6.607m.268.804c3.718.917 10.167-1.127 7.768-5.447m-25.267-19.696c2.338-.944 4.089-1.005 5.934.379m-4.04-1.01c.877.198.802.802 1.136 1.136m.126 3.788c-.438.733-.989 1.295-1.389 1.894" fill="none" fill-rule="evenodd" stroke="#000"/><path d="M498.005 567.68c1.861-.555 4.392-2.236 6.27-4.165 11.101-11.397 4.686-34.337-9.602-34.337-5.492 0-9.93 3.487-13.026 10.238-1.38 3.007-1.74 5.124-1.74 10.237 0 9.3 2.966 15.137 9.086 17.88 2.871 1.287 5.073 1.323 9.012.147z" fill="url(#p)" stroke="#000"/><path d="M428.45 405.064c2.45-1.116 2.443-1.953-.023-3.077-2.29-1.043-4.026-.244-4.962 2.287-.53 1.431-.355 1.67 1.218 1.67 1.01 0 2.705-.396 3.767-.88z" fill="#888794" stroke="#000"/><path d="M494.827 403.526c2.872-1.048 4.438-2.044 4.438-2.824 0-3.327-17.86-16.033-22.538-16.033-1.621 0-6.384 2.927-6.786 4.17-.134.418 1.315 1.4 3.22 2.184 4.76 1.958 11.775 7.372 14.331 11.06 1.167 1.683 2.296 3.06 2.51 3.06.212 0 2.384-.727 4.825-1.617z" fill="url(#q)" stroke="#000"/><path d="M469.023 386.185l3.125-3.033h-2.597c-1.644 0-3.973.897-6.348 2.444l-3.75 2.444 3.033.482c1.668.265 3.118.53 3.222.59.104.058 1.595-1.258 3.315-2.927z" fill="url(#r)" stroke="#000"/><ellipse style="isolation:auto;mix-blend-mode:normal" cx="594.137" cy="-163.538" rx="2.425" ry="3.657" transform="matrix(.53453 .84515 -.85559 .51766 -20.487 -17.485)" color="#000" overflow="visible" fill="url(#s)" stroke-width=".761" filter="url(#t)" enable-background="accumulate"/><path d="M416.688 308.511l5.556-1.894s2.399-.758 3.283-.758c.884 0 2.146.253 3.03 0 .884-.252 2.526-.378 2.526-.378" fill="none" fill-rule="evenodd" stroke="#000" stroke-width="2"/><ellipse style="isolation:auto;mix-blend-mode:normal" cx="594.137" cy="-163.538" rx="2.425" ry="3.657" transform="matrix(.53453 .84515 -.85559 .51766 -.032 .256)" color="#000" overflow="visible" fill="url(#u)" stroke-width=".761" filter="url(#v)" enable-background="accumulate"/></g></svg>