<svg xmlns="http://www.w3.org/2000/svg" viewBox="0 0 261.05 310.59" width="512" height="512"><title>sass</title><path d="M259.45 38c-9.3-36.49-69.8-48.48-127.06-28.14C98.31 22 61.42 41 34.9 65.77 3.36 95.27-1.67 120.94.41 131.67c7.31 37.85 59.18 62.6 80.5 81v.11c-6.29 3.09-52.3 26.38-63.07 50.19-11.37 25.03 1.8 43.1 10.52 45.53 27 7.52 54.74-6 69.64-28.23 14.38-21.45 13.18-49.14 6.93-62.92 8.62-2.27 18.67-3.29 31.44-1.8 36 4.21 43.11 26.71 41.76 36.13s-8.91 14.6-11.44 16.16-3.3 2.11-3.09 3.27c.31 1.69 1.48 1.63 3.63 1.26 3-.5 18.92-7.66 19.61-25 .87-22.07-20.28-46.76-57.73-46.11-15.42.27-25.12 1.73-32.13 4.34-.52-.59-1-1.18-1.59-1.76-23.15-24.7-66-42.17-64.14-75.38.66-12.07 4.86-43.86 82.24-82.42 63.41-31.64 114.15-22.95 122.92-3.69 12.53 27.52-27.12 78.67-93 86.05-25.08 2.81-38.29-6.91-41.57-10.53-3.46-3.81-4-4-5.27-3.27-2.1 1.17-.77 4.53 0 6.54 2 5.12 10 14.19 23.78 18.7 12.1 4 41.54 6.15 77.16-7.62 39.94-15.43 71.08-58.35 61.94-94.22zM89.76 223.93c3 11.06 2.66 21.37-.43 30.7q-.51 1.56-1.13 3.08t-1.33 3a57.39 57.39 0 0 1-9.49 13.83c-11.94 13-28.61 17.95-35.76 13.8-7.72-4.48-3.85-22.84 10-37.46C66.49 235.14 87.91 225 87.91 225v-.06z"/></svg>