<svg xmlns="http://www.w3.org/2000/svg" viewBox="0 0 100 100"><title>Twitter</title><path d="M100,19a40.45,40.45,0,0,1-11.78,3.22,20.63,20.63,0,0,0,9-11.35,41.25,41.25,0,0,1-13,5,20.53,20.53,0,0,0-35,18.69A58.22,58.22,0,0,1,7,13.12,20.54,20.54,0,0,0,13.34,40.5,20.53,20.53,0,0,1,4,37.94v.25A20.53,20.53,0,0,0,20.5,58.31a20.55,20.55,0,0,1-5.41.72,21.1,21.1,0,0,1-3.87-.37A20.53,20.53,0,0,0,30.38,72.9,41.1,41.1,0,0,1,4.9,81.68,40.78,40.78,0,0,1,0,81.39a58.07,58.07,0,0,0,31.44,9.22c37.73,0,58.37-31.26,58.37-58.37,0-.9,0-1.78-.06-2.66A40.28,40.28,0,0,0,100,19Z"/></svg>