<?xml version="1.0" encoding="iso-8859-1"?>
<!-- Generator: Adobe Illustrator 16.0.0, SVG Export Plug-In . SVG Version: 6.00 Build 0)  -->
<!DOCTYPE svg PUBLIC "-//W3C//DTD SVG 1.1//EN" "http://www.w3.org/Graphics/SVG/1.1/DTD/svg11.dtd">
<svg xmlns="http://www.w3.org/2000/svg" xmlns:xlink="http://www.w3.org/1999/xlink" version="1.1" id="Capa_1" x="0px" y="0px" width="512px" height="512px" viewBox="0 0 69.514 69.514" style="enable-background:new 0 0 69.514 69.514;" xml:space="preserve">
<g>
	<path d="M69.514,63.309l-9.467-9.467c3.829-5.396,6.09-11.979,6.09-19.084c0-18.234-14.835-33.068-33.069-33.068S0,16.523,0,34.757   C0,52.99,14.834,67.824,33.067,67.824c9.686,0,18.412-4.186,24.464-10.842l9.154,9.154L69.514,63.309z M33.068,63.823   C17.04,63.823,4,50.784,4,34.757C4,18.729,17.04,5.689,33.068,5.689s29.069,13.04,29.069,29.068   C62.137,50.784,49.096,63.823,33.068,63.823z M35.07,32.756h13.049v4H35.07v13.051h-4V36.756H18.021v-4H31.07V19.709h4V32.756z" fill="#FFFFFF"/>
</g>
<g>
</g>
<g>
</g>
<g>
</g>
<g>
</g>
<g>
</g>
<g>
</g>
<g>
</g>
<g>
</g>
<g>
</g>
<g>
</g>
<g>
</g>
<g>
</g>
<g>
</g>
<g>
</g>
<g>
</g>
</svg>
