<svg xmlns="http://www.w3.org/2000/svg" viewBox="0 0 22.8 22.8" width="512" height="512"><title>Apple</title><path d="M15.8 0c0.1 0 0.1 0 0.2 0 0.1 1.6-0.5 2.8-1.2 3.7 -0.7 0.9-1.7 1.7-3.4 1.6 -0.1-1.6 0.5-2.7 1.3-3.6C13.3 0.9 14.6 0.2 15.8 0z" /><path d="M20.7 16.7c0 0 0 0 0 0 -0.5 1.4-1.1 2.6-1.9 3.7 -0.7 1-1.6 2.3-3.2 2.3 -1.4 0-2.3-0.9-3.7-0.9 -1.5 0-2.3 0.7-3.7 0.9 -0.2 0-0.3 0-0.5 0 -1-0.1-1.8-0.9-2.4-1.6 -1.7-2.1-3.1-4.8-3.3-8.3 0-0.3 0-0.7 0-1 0.1-2.5 1.3-4.5 2.9-5.5 0.8-0.5 2-1 3.3-0.8 0.6 0.1 1.1 0.3 1.6 0.5 0.5 0.2 1.1 0.5 1.6 0.5 0.4 0 0.8-0.2 1.1-0.3 1.1-0.4 2.2-0.9 3.7-0.6 1.7 0.3 3 1 3.7 2.2 -1.5 0.9-2.6 2.3-2.4 4.7C17.8 14.7 19.1 16 20.7 16.7z"/></svg>