<svg xmlns="http://www.w3.org/2000/svg" viewBox="0 0 100 100"><title>Behance</title><path d="M42.31,45.07A16.76,16.76,0,0,0,45,35.71,17,17,0,0,0,27.92,19.16H2.18A2.22,2.22,0,0,0,0,21.36V78a2.19,2.19,0,0,0,2.18,2.18H30.95A19.3,19.3,0,0,0,42.31,45.07Zm-31-14.59H28.16a5.54,5.54,0,0,1,0,11.08H11.3ZM31.19,68.87H11.3v-16H31.21a8,8,0,1,1,0,16Z"/><path d="M100,56.91C100,43.74,89.6,33,76.82,33S53.65,43.74,53.65,56.91s10.4,23.93,23.16,23.93A22.93,22.93,0,0,0,96.07,70.22a23.29,23.29,0,0,0,1.46-2.6,1,1,0,0,0-.89-1.4l-11.38,0a1,1,0,0,0-.68.28,10.76,10.76,0,0,1-7.79,3.08,12.08,12.08,0,0,1-11.58-9.88H97.73A2.28,2.28,0,0,0,100,57.42v-.5ZM76.82,44.31A11.71,11.71,0,0,1,86.74,50H66.89A11.74,11.74,0,0,1,76.82,44.31Z"/><path d="M86.46,30.2H65.91a1.75,1.75,0,0,1-1.74-1.74V23.3a1.75,1.75,0,0,1,1.74-1.74H86.46A1.75,1.75,0,0,1,88.2,23.3v5.15A1.75,1.75,0,0,1,86.46,30.2Z"/></svg>