<svg xmlns="http://www.w3.org/2000/svg" viewBox="0 0 365 365"><style>  .a{fill:#4d4d4d;}</style><title>Brackets</title><path d="M292 0H73A73.2 73.2 0 0 0 0 73V292a73.2 73.2 0 0 0 73 73H292a73.2 73.2 0 0 0 73-73V73A73.2 73.2 0 0 0 292 0ZM40.2 73A32.9 32.9 0 0 1 73 40.2H292A32.9 32.9 0 0 1 324.9 73V255.5A32.9 32.9 0 0 1 292 288.4H73A32.9 32.9 0 0 1 40.2 255.5Z" class="a"/><polygon points="193.5 116.8 244.6 116.8 244.6 208.1 193.5 208.1 193.5 251.9 284.7 251.9 284.7 76.7 193.5 76.7 193.5 116.8" class="a"/><polygon points="80.3 251.9 171.6 251.9 171.6 208.1 120.5 208.1 120.5 116.8 171.6 116.8 171.6 76.7 80.3 76.7 80.3 251.9" class="a"/></svg>