<svg xmlns="http://www.w3.org/2000/svg" viewBox="0 0 100 100"><title>CodePen</title><path d="M95,29.09,53.46,1.42a7.55,7.55,0,0,0-8.81,0L5,29.09a7.79,7.79,0,0,0-3.46,6.6V65.25A8.2,8.2,0,0,0,5,71.86L45.28,98.58a7.55,7.55,0,0,0,8.81,0L95,71.54a7.79,7.79,0,0,0,3.46-6.6V35.69A8.2,8.2,0,0,0,95,29.09Zm-40.25-16L84,33.49,68.87,43.55,54.72,33.18Zm-10.38,0V32.86L29.87,42.92,15.41,33.18Zm-33,30.19,9.43,6.29-9.43,6.6ZM45,85.69h-.31L15.41,65.88,30.19,55.5,45,65.25Zm4.72-28.93L39,49.53l9.43-6.6,11,7.23ZM55,85.69V65.57l14.15-9.43L84.28,66.19ZM88.36,56.45,78.3,49.84l10.06-6.6Z"/></svg>