<svg xmlns="http://www.w3.org/2000/svg" viewBox="0 0 470.7 470.7" width="512" height="512"><title>CSS</title><path d="M427 0H43.7C34.5 0 27.6 7.8 28.4 16.9L63.5 409.3c0.8 9.2 8.7 18.8 17.6 21.3l138 38.3c8.9 2.5 23.4 2.5 32.3 0l138.2-38.3c8.9-2.5 16.8-12 17.6-21.2l35-392.5C443.1 7.8 436.2 0 427 0zM360.5 141.6c0 0.1-0.1 0.1-0.1 0.1 -0.1 0-0.1 0-0.1-0.1L252.1 186c-1.5 0.6-2.4 2.3-2.1 3.9 0.3 1.6 1.8 2.8 3.4 2.8h84.1c4.5 0 8.7 1.9 11.7 5.2 3 3.3 4.4 7.8 4 12.2l-13.1 123.3c-0.6 6-4.7 11.2-10.4 13.2l-89.3 31.4c-3.4 1.2-7 1.2-10.4 0l-88.9-30.8c-5.8-2-9.9-7.2-10.5-13.2l-6-55.8c-0.3-2.9 0.6-5.9 2.6-8 2-2.2 4.8-3.4 7.7-3.4h24.7c5.3 0 9.8 4 10.3 9.3l3.7 34.3 61.5 21.4 61.8-21.6 7.6-71.2H129.8c-5.3 0-9.7-4-10.3-9.2l-3.3-30.2c-0.5-4.6 2.1-9 6.4-10.7l111.8-46.1c1.3-0.5 2-1.9 1.7-3.2 -0.3-1.3-1.4-2.3-2.8-2.3H115.5c-3.5 0-6.5-2.7-6.9-6.2l-3.4-32.4c-0.2-2 0.4-3.9 1.7-5.4 1.3-1.5 3.2-2.3 5.1-2.3h246.4c2 0 3.9 0.8 5.2 2.3 1.3 1.5 1.9 3.4 1.7 5.4L360.5 141.6z" /></svg>