<svg xmlns="http://www.w3.org/2000/svg" viewBox="0 0 485 485" width="512" height="512"><title>Illustrator</title><path d="M168.4 305.5h68.2l18.4 61.1h57.9l-73.9-238.3h-70.6L95.5 366.6h55.9L168.4 305.5zM201.2 168.5h0.7c3.5 14.3 27 96.5 27 96.5h-52.7C176.1 265.1 197.7 182.8 201.2 168.5z" /><rect x="334" y="193.8" width="53.8" height="172.8" /><path d="M360.5 172.5c17.8 0 29-12.1 29-26.9 -0.4-15.6-11.2-27.2-28.6-27.2 -17.4 0-28.7 11.7-28.4 27.2C332.2 160.4 343.6 172.5 360.5 172.5z" /><path d="M0 0v485h485V0H0zM455 455H30V30h425V455z" /></svg>