<svg xmlns="http://www.w3.org/2000/svg" viewBox="0 0 485 485" width="512" height="512"><title>InDesign</title><rect x="117.5" y="130.7" width="52.6" height="232" class="a"/><path d="M265.3 366.6c21.6 0 42-9.7 52.6-28.6h0.8l2.3 24.7h46.5c-0.6-11.3-1.4-31.3-1.4-50.3V118.4h-52.3v91.2h-0.6c-7.5-11.7-23.7-19-44.5-19 -40.3 0-75.8 32.7-75.3 89.5C193.4 332.5 225.3 366.6 265.3 366.6zM282.4 230.6c16.2 0 27.5 11.7 30.5 25.8 0.5 2.8 0.8 6.6 0.8 9.4v21.9c0 4.5-0.3 8.3-1.4 12.1 -3.1 14.8-15.1 25.1-30.3 25.1 -21.8 0-35.8-17.9-35.8-46.4C246.3 251.9 258.6 230.6 282.4 230.6z" /><path d="M0 0v485h485V0H0zM455 455H30V30h425V455z" /></svg>
