<svg xmlns="http://www.w3.org/2000/svg" viewBox="0 0 100 100"><title>Instagram</title><path d="M72.34,0H27.6A27.59,27.59,0,0,0,0,27.6V72.4A27.63,27.63,0,0,0,27.6,100H72.4A27.63,27.63,0,0,0,100,72.4V27.6A27.72,27.72,0,0,0,72.34,0ZM91.08,72.34A18.74,18.74,0,0,1,72.34,91.08H27.6A18.74,18.74,0,0,1,8.87,72.34V27.6A18.74,18.74,0,0,1,27.6,8.87H72.4A18.74,18.74,0,0,1,91.13,27.6V72.34Z"/><path d="M49.94,24.23A25.77,25.77,0,1,0,75.71,50,25.79,25.79,0,0,0,49.94,24.23Zm0,42.61a16.9,16.9,0,1,1,16.9-16.9A16.94,16.94,0,0,1,49.94,66.84Z"/><path d="M76.77,16.73a6.74,6.74,0,0,0-4.61,1.89,6.38,6.38,0,0,0-1.89,4.61,6.74,6.74,0,0,0,1.89,4.61,6.63,6.63,0,0,0,4.61,1.89,6.74,6.74,0,0,0,4.61-1.89,6.38,6.38,0,0,0,1.89-4.61,6.74,6.74,0,0,0-1.89-4.61A6.38,6.38,0,0,0,76.77,16.73Z"/></svg>