<svg xmlns="http://www.w3.org/2000/svg" viewBox="0 0 365 365"><title>JavaScript</title><path d="M0,0V365H365V0ZM198.63,284.68c0,35.53-20.82,51.7-51.21,51.7C120,336.38,104.06,322.17,96,305h0l27.93-16.9c5.39,9.55,10.29,17.64,22,17.64,11.27,0,18.38-4.41,18.38-21.56V167.57h34.3Zm81.11,51.7c-31.85,0-52.43-15.19-62.48-35h0l27.93-16.17C252.54,297.18,262.1,306,279,306c14.21,0,23.28-7.11,23.28-16.91,0-11.76-9.31-15.93-25-22.78l-8.57-3.68c-24.75-10.53-41.16-23.76-41.16-51.7,0-25.73,19.6-45.33,50.23-45.33,21.81,0,37.49,7.6,48.76,27.44L299.83,210.2c-5.88-10.53-12.25-14.7-22-14.7-10,0-16.42,6.37-16.42,14.7,0,10.29,6.37,14.46,21.07,20.83L291,234.7c29.16,12.5,45.57,25.24,45.57,53.9C336.58,319.48,312.32,336.38,279.74,336.38Z" /></svg>