<svg xmlns="http://www.w3.org/2000/svg" viewBox="0 0 100 100"><title>LinkedIn</title><path d="M23.29,32.18H3.19a1.6,1.6,0,0,0-1.61,1.61V98.27a1.6,1.6,0,0,0,1.61,1.61h20.1a1.6,1.6,0,0,0,1.61-1.61V33.79A1.64,1.64,0,0,0,23.29,32.18Z"/><path d="M13.26.11A13.24,13.24,0,1,0,26.48,13.37,13.26,13.26,0,0,0,13.26.11Z"/><path d="M74.35,30.6A23.49,23.49,0,0,0,56.71,38V33.79a1.6,1.6,0,0,0-1.61-1.61H35.87a1.6,1.6,0,0,0-1.61,1.61V98.27a1.6,1.6,0,0,0,1.61,1.61h20a1.6,1.6,0,0,0,1.61-1.61V66.37c0-10.74,2.94-14.94,10.42-14.94,8.16,0,8.81,6.71,8.81,15.48V98.27a1.6,1.6,0,0,0,1.61,1.61h20A1.6,1.6,0,0,0,100,98.27V62.92C100,46.92,96.94,30.6,74.35,30.6Z"/></svg>