<svg xmlns="http://www.w3.org/2000/svg" viewBox="0 0 512 512"><title>PostgreSQL</title><path d="M510,495.17c-8.77-12.36-23-22.62-38-33.49C455.82,450,439.19,438,430.85,424c31.61-6.6,71.61-18.57,73.54-19.15a10.67,10.67,0,0,0,5.1-17.08c-2.06-2.45-50.49-59.27-128.66-87.15-3.45-6.91-7.29-15.76-11.76-26C337.6,202.43,272.25,52.53,99.82,32.36,86.08,23.08,50.07,0,32,0,9.57,0,0,9.57,0,32,0,42.92,8.89,55.68,23.38,75.6c7.08,9.74,18.94,26,19.29,31.06,0,17.46,20.25,74,40.61,98.16-.58,1.24-1.17,2.46-1.74,3.67-9,19-17.54,37-17.54,79.51,0,56,26.83,85.33,53.33,85.33,16.45,0,24.64-18.67,28.57-40.52,14.62,29.66,38.49,68.29,71.94,91.91a10.67,10.67,0,1,0,12.31-17.44c-53-37.44-81.07-121.74-81.35-122.59A10.67,10.67,0,0,0,128,288c0,29.29-5.58,60.5-10.67,64-15.39,0-32-24.47-32-64,0-37.74,6.83-52.13,15.48-70.36,1.61-3.41,3.28-6.91,4.94-10.63A10.68,10.68,0,0,0,103,194.58c-16.44-14.15-39-73.75-39-87.92C64,95.75,55.11,83,40.63,63.06,33.54,53.32,21.69,37,21.33,32c0-10.67,0-10.67,10.67-10.67,8.65,0,36.82,15.64,58,30.14a10.65,10.65,0,0,0,4.89,1.8C257,70.85,317.19,209,349.53,283.19c5.45,12.5,10.16,23.3,14.41,31.2a10.66,10.66,0,0,0,6,5.05c53.24,18,92.94,51.76,111.54,69.86-18.17,5.09-47.18,12.84-67.2,16.18a10.67,10.67,0,0,0-8.59,13.1c6.55,26.25,31.7,44.4,53.88,60.4,13.57,9.79,26.39,19,33.09,28.52A10.67,10.67,0,0,0,510,495.17ZM96,85.33A10.66,10.66,0,0,0,106.67,96a10.67,10.67,0,0,1,10.67,10.67,10.67,10.67,0,0,0,21.33,0,32,32,0,0,0-32-32A10.66,10.66,0,0,0,96,85.33Z" /></svg>