<svg xmlns="http://www.w3.org/2000/svg" width="512" height="512" viewBox="0 0 554.6 554.6"><style>.a{fill:#FFF;}</style><path d="M154.1 86.1c0-36.3 30.6-66.9 66.9-66.9s66.9 30.6 66.9 66.9v53.6c11.5-15.3 19.1-34.4 19.1-53.5C307.1 38.3 268.9 0 221.1 0c-47.8 0-86.1 38.3-86.1 86.1 0 21 7.7 40.2 19.1 53.6V86.1z" class="a"/><path d="M450.6 229.5c-11.5 0-21 3.8-28.7 9.6l0 0c0-26.8-21-47.8-47.8-47.8 -11.5 0-22.9 3.8-32.5 11.5 -7.6-19.1-24.9-30.6-44-30.6 -11.5 0-21 3.8-28.7 9.6V86.1c0-26.8-21-47.8-47.8-47.8s-47.8 21-47.8 47.8v170.2c-38.2-34.4-80.3-61.2-107.1-34.4 -38.2 38.3 42.1 112.8 103.3 225.7 44 78.4 105.2 107.1 166.4 107.1 89.9 0 162.6-72.7 162.6-162.6v-114.7C498.4 250.5 477.4 229.5 450.6 229.5zM479.3 319.4v72.7c0 74.6-65 143.4-143.4 143.4 -72.7 0-114.7-40.2-149.2-95.6 -72.7-126.2-126.2-183.6-107.1-204.6 21-21 72.7 24.9 112.8 66.9V86.1c0-15.3 13.4-28.7 28.7-28.7 15.3 0 28.7 13.4 28.7 28.7v200.8h19.1v-66.9c0-15.3 13.4-28.7 28.7-28.7 15.3 0 28.7 13.4 28.7 28.7v47.8h19.1v-28.7c0-15.3 13.4-28.7 28.7-28.7 15.3 0 28.7 13.4 28.7 28.7v47.8h19.1v-9.6c0-15.3 13.4-28.7 28.7-28.7 15.3 0 28.7 13.4 28.7 28.7V319.4z" class="a"/></svg>
