<svg xmlns="http://www.w3.org/2000/svg" viewBox="0 0 386.4 184.5" width="512" height="512"><title>PHP</title><path d="M77.4 61.8q18.1 0 24.1 6.7t2.9 22.9q-3.3 16.9-12.7 24.2t-28.6 7.2H43.8l11.9-61ZM0 184.5H31.8l7.5-38.7h27.2q18 0 29.6-3.8a56.1 56.1 0 0 0 21.1-12.7 63.3 63.3 0 0 0 19.9-35.7q5-25.9-7.6-40.4T89.4 38.8H28.3Z" /><path d="M160.5 0H192l-7.5 38.8h28.1q26.5 0 36.5 9.2t6 29.9l-13.2 67.8h-32l12.5-64.5q2.1-11-1.6-15t-15.8-4H179.9l-16.2 83.5h-31.5Z" /><path d="M325.2 61.8q18.1 0 24.1 6.7t2.9 22.9q-3.3 16.9-12.7 24.2t-28.6 7.2H291.6l11.9-61ZM247.8 184.5h31.8l7.5-38.7h27.2q18 0 29.6-3.8A56.1 56.1 0 0 0 365 129.3 63.3 63.3 0 0 0 385 93.6q5-25.9-7.6-40.4T337.2 38.8H276.1Z" /></svg>