<svg xmlns="http://www.w3.org/2000/svg" viewBox="0 0 434.36 447.69"><title>postgresql</title><path d="M433.14,267.44c-1.59-4.78-8.75-20-34.18-14.65a137.57,137.57,0,0,1-19.78,2.81c19.51-33.39,35.36-71.2,44.56-106.82,8.43-32.64,14.8-76.24-2.68-98.54C395.76,17.93,358.89.56,314.44,0c-22.93-.28-43.58,4-55.08,7.66A204.17,204.17,0,0,0,227.42,4.8c-21.11-.36-39.91,4.21-56,13.65a256.56,256.56,0,0,0-39.13-9.77c-39-6.4-70.39-1.38-93.44,14.9C10.86,43.31-2.11,77.5.28,125.21,1,140.27,9.45,186,22.69,229.41,47.53,310.77,71,327,86.46,332.19c8.12,2.71,22.73,4.62,38.13-7.67,5.73,6.28,14.34,10.44,22.67,12.58l.13,0c18.73,4.68,36.34,3.73,51.52-2.44.07,2.34.13,4.53.18,6.39.09,3.4.18,6.72.3,9.85v.11c1,23.52,2.54,40.57,7.11,52.83.28.78.57,1.67.88,2.64,2.3,7.1,6.15,19,16,28.37,6.63,6.28,17.5,12.8,34.1,12.8a75.16,75.16,0,0,0,15.89-1.8c16.83-3.61,36-9.13,49.87-28.92,13.14-18.7,19.49-46.82,20.58-91.15h0l.29-2.49.13-1.12,1.82.16.88.06c14.41.64,35.71-1.84,50.87-8.83C408.13,308.81,441.08,291.37,433.14,267.44Zm-41.61,32.45c-10.77,5-29.23,8.11-43.89,7.45h-.22l-4.5-.4a5,5,0,0,1-.62-.09c-6-1.31-7.91-.77-8.51-.33a5.42,5.42,0,0,0-1.4,2.86c-2.38,21.33-6.75,56.73-9.48,72.37-5.15,29.91-18.49,43.49-49.24,50.09a68.11,68.11,0,0,1-14.34,1.64c-29.26,0-38.45-23.17-42.21-32.66-4.79-11.82-6.38-51.71-6-91.83C196,323.69,175.07,328.5,151,322.48c-5-1.29-12.46-4.37-16.07-9.11a9.63,9.63,0,0,1-2.5-6.46c.19-8.18,11-11.37,19.16-13.06,19.59-4,21-5.87,27.06-13.52,1.27-1.61,2.77-3.51,4.63-5.69q-.09-.86-.13-1.72a53,53,0,0,1-25.78-7c-5.87,6.28-20.25,21.88-34.88,39.48-12.3,14.79-23.81,14.92-31.31,12.42-9-3-17.87-11.63-26.48-25.74q-14.48-23.52-28-67.69C23.84,182.2,15.68,138.16,15,123.86,12.85,81.61,23.69,51.75,47.19,35.1c43-30.49,113.32-6,126.46-.95C188.39,24,206.25,19,226.95,19.3a142,142,0,0,1,18,1.43q7.45.77,14.24,2.09l.18-.07,0,.11,1.09.21,1.19-.39a4.72,4.72,0,0,0-2.29.06c5.5-2.05,27.08-8.61,54.15-8.34,39.88.39,72.83,15.74,95.28,44.39.43.55.84,1.14,1.24,1.75,9.65,14,9.33,44.61-1,84.4-10.55,40.83-30.16,84.62-54,120.69,4,3.42,16.62,7.37,46.47,1.25,8-1.66,13.23-.82,15.73,2.5a7.38,7.38,0,0,1,1.56,2.69C422.09,281.67,404.28,294,391.53,299.89Z" style="fill:#fff"/><path d="M306,137.68c-13.4,19.16,12.17,65,23.08,84.59,2.77,5,4.77,8.56,5.67,10.73a62.93,62.93,0,0,0,4.39,8.67c8.81-16.78,6.77-33.76,4.79-50.23-1-8-1.87-15.58-1.63-23.13a163.9,163.9,0,0,1,2.22-20.3,121.63,121.63,0,0,0,1.89-18.87C325.44,126.38,311.85,129.25,306,137.68Zm27.51.86c.23,1.53-1.07,3.45-1.64,4.21a12.81,12.81,0,0,1-8.21,5.12,9.8,9.8,0,0,1-1.32.09c-5.2,0-9.44-4.07-9.8-6.53a2.84,2.84,0,0,1,.64-2.16c1.4-1.86,5-3.42,9.21-4C327.54,134.6,333,135.49,333.46,138.55Z" style="fill:#fff"/><path d="M201.1,148.14c-2.14-9.9-7.39-15.57-16.07-17.36-18.16-3.74-42.92,10-47.34,14.33,0,1.08.13,2.51.23,4.19.6,10,1.85,30.72-1.41,53.73a53.92,53.92,0,0,0,9.61,39.57,52,52,0,0,0,4.41,5.29,45.53,45.53,0,0,0,33.74,14.49,126.41,126.41,0,0,1,4.91-15.4l1.09-2.94.93-2.5c1.17-3.16,2.56-6.25,4-9.51C202.47,216,211.47,195.95,201.1,148.14Zm-6.92-2.36c-.45,3.18-5.31,7.37-10.82,7.37a10.57,10.57,0,0,1-1.42-.09,13.82,13.82,0,0,1-8.87-5.51c-.8-1.06-2.1-3.12-1.83-5,.56-3.89,6.55-4.86,12.24-4.09,4.51.6,8.3,2.27,9.88,4.36A3.82,3.82,0,0,1,194.18,145.78Z" style="fill:#fff"/><path d="M94.06,307.88c2.46.82,9.95,3.31,20.46-9.33,14.8-17.78,28.62-32.73,34.25-38.72a59.79,59.79,0,0,1-5.46-5,62.22,62.22,0,0,1-4.59-5.38,63.81,63.81,0,0,1-12.11-47.79c3.12-22,2-41.34,1.33-51.73-.16-2.71-.28-4.67-.28-6a5.79,5.79,0,0,1,.08-1.09c0-8.56.92-54.75,25.3-88.3a91.47,91.47,0,0,1,9-10.61c.58-.58,1.18-1.13,1.77-1.69-21-7-76.76-22.2-110.58,1.71-20.48,14.48-29.89,41.38-28,80C25.85,136,33.51,179.13,46.6,222c8.6,28.18,17.68,50.16,26.68,65C80.34,298.53,87.35,305.64,94.06,307.88Z" style="fill:#fff"/><path d="M315.44,25a164.73,164.73,0,0,0-39.64,4.15,128.12,128.12,0,0,1,21.81,11.57,140,140,0,0,1,28.89,25.59c19.64,22.85,29.29,48,30.1,56.46a8.26,8.26,0,0,1-.29,3.36c.3,8.7-.78,15.88-2,23.43a155.66,155.66,0,0,0-2.1,19.11c-.22,6.78.65,14,1.56,21.6,1,8,2,16.43,1.76,25.12-.27,11.46-2.67,23.37-10.12,35.28l1.3,1.63c.83,1,1.63,2,2.38,3,22-34.35,40.1-75.25,50-113.47,9-34.79,10-64,2.77-75.55-.17-.25-.34-.51-.53-.74C380.89,39.38,352,25.73,315.44,25Z" style="fill:#fff"/><path d="M354.45,297c12-.4,24.78-3,32.47-6.54,10.36-4.81,17-10.31,20.06-13.75-.81.1-1.78.26-2.94.5l-.46.07c-25,5.14-42.72,4.45-52.58-2a19.83,19.83,0,0,1-2.66-2.08,27.87,27.87,0,0,1-3,1c-6,1.67-12.25,3.39-11.35,19.48C334.59,294.8,340.65,297.42,354.45,297Z" style="fill:#fff"/><path d="M324.75,282.12a22.76,22.76,0,0,1,5.31-10.86c4.07-4.44,9.25-5.88,12.59-6.81l.58-.16a56.12,56.12,0,0,0-4.27-5.76c-1.45-1.82-3.11-3.88-4.82-6.26a75.56,75.56,0,0,1-8.69-15.46c-.67-1.64-2.75-5.36-5.15-9.67-12.83-23-39.52-70.9-22.54-95.19,7.95-11.37,24-15.73,47.78-13-2.67-8.68-10.34-26.81-25.61-45A127.62,127.62,0,0,0,282.1,43.13a118.43,118.43,0,0,0-38.45-12.48q-8-.8-16.66-.95c-19.64-.35-36.44,4.66-50,14.88a5,5,0,0,1-1.79.86,72.21,72.21,0,0,0-6.08,5.47,78.89,78.89,0,0,0-6.12,7c-18.8,24.06-23.65,57.44-24.88,74.69,1.5-.89,3.22-1.84,5.18-2.84,5.66-2.88,17-7.9,29.45-9.23,20.54-2.19,34.07,6.88,38.09,25.54,11.07,51,.9,73.62-6.52,90.12-1.4,3.1-2.71,6-3.77,8.88l-.94,2.52-.71,1.91a121,121,0,0,0-5,15.57,5,5,0,0,1,.25.8c5.82-2.2,10.67-.15,13.45,1a17.38,17.38,0,0,1,1.64.78,23.37,23.37,0,0,1,9.65,10.42,26.68,26.68,0,0,1,1.66,4.29,24,24,0,0,1,.92,5.34h.05c0,.26,0,.51,0,.77q0,1-.05,2-.17,6.61-.27,13.07c4.67,11.3,6.3,32,5.83,46.26-.57,20.24-1,34.87,2.81,45.4.44,1.18.87,2.51,1.33,3.92,4.12,12.58,9.25,28.24,36.87,22.26s41.5-20.58,43.43-46A82.29,82.29,0,0,1,314.61,357c1.1-4,2-7.09,2.07-15.61a5,5,0,0,1,.26-1.54l2.63-7.8c.29-2.41.52-4.66.73-6.77l0-.42c.12-1.19.23-2.35.33-3.44a108.63,108.63,0,0,1,1.83-13.69c.71-6.39,1.23-11.42,1.45-14.09A44.24,44.24,0,0,1,324.75,282.12Z" style="fill:#fff"/><path d="M210,294a8.36,8.36,0,0,0,1.5-4.24l0-1.2a14,14,0,0,0-.56-3.45c-1.18-4.09-4.14-7.8-7.18-9s-5.51-2.32-9.33,1.22a5,5,0,0,1-1.05,1.88c-2.76,3.08-4.75,5.6-6.5,7.83-7.55,9.57-10.71,12.53-32.88,17.12-6.69,1.39-9.54,2.83-10.68,3.61a27.18,27.18,0,0,0,9.71,4.54C170,316.53,193.69,316.81,210,294Z" style="fill:#fff"/></svg>